<svg width="1050" height="1050" xmlns="http://www.w3.org/2000/svg">
<rect x="0" y="0" width="1050" height="1050" fill="lightgray" />
<circle cx="794.66" cy="961.837" r="5" fill="red"/>
<circle cx="702.983" cy="695.733" r="5" fill="red"/>
<circle cx="30.1042" cy="486.321" r="5" fill="red"/>
<circle cx="30.6079" cy="502.66" r="5" fill="red"/>
<circle cx="253.671" cy="180.161" r="5" fill="red"/>
<circle cx="843.7" cy="130.569" r="5" fill="red"/>
<circle cx="636.753" cy="819.503" r="5" fill="red"/>
<circle cx="583.962" cy="446.833" r="5" fill="red"/>
<circle cx="664.799" cy="290.507" r="5" fill="red"/>
<circle cx="718.808" cy="304.414" r="5" fill="red"/>
<circle cx="28.3413" cy="620.917" r="5" fill="red"/>
<circle cx="48.7407" cy="968.665" r="5" fill="red"/>
<circle cx="465.979" cy="774.757" r="5" fill="red"/>
<circle cx="895.845" cy="306.426" r="5" fill="red"/>
<circle cx="200.362" cy="512.799" r="5" fill="red"/>
<circle cx="0.405636" cy="903.683" r="5" fill="red"/>
<circle cx="914.03" cy="651.686" r="5" fill="red"/>
<circle cx="956.457" cy="857.97" r="5" fill="red"/>
<circle cx="973.598" cy="858.021" r="5" fill="red"/>
<circle cx="407.833" cy="692.504" r="5" fill="red"/>
<circle cx="789.828" cy="764.568" r="5" fill="red"/>
<circle cx="160.688" cy="160.848" r="5" fill="red"/>
<circle cx="643.703" cy="528.064" r="5" fill="red"/>
<circle cx="876.434" cy="113.828" r="5" fill="red"/>
<circle cx="919.191" cy="849.812" r="5" fill="red"/>
<circle cx="499.426" cy="837.625" r="5" fill="red"/>
<circle cx="209.535" cy="639.774" r="5" fill="red"/>
<circle cx="906.435" cy="13.3159" r="5" fill="red"/>
<circle cx="713.545" cy="444.629" r="5" fill="red"/>
<circle cx="752.393" cy="591.85" r="5" fill="red"/>
<circle cx="80.4863" cy="102.737" r="5" fill="red"/>
<circle cx="617.294" cy="654.813" r="5" fill="red"/>
<circle cx="929.269" cy="915.088" r="5" fill="red"/>
<circle cx="327.834" cy="145.773" r="5" fill="red"/>
<circle cx="393.632" cy="564.81" r="5" fill="red"/>
<circle cx="209.754" cy="861.643" r="5" fill="red"/>
<circle cx="643.359" cy="983.949" r="5" fill="red"/>
<circle cx="204.861" cy="528.248" r="5" fill="red"/>
<circle cx="818.072" cy="20.1374" r="5" fill="red"/>
<circle cx="567.044" cy="523.169" r="5" fill="red"/>
<circle cx="81.3591" cy="589.987" r="5" fill="red"/>
<circle cx="996.563" cy="16.0187" r="5" fill="red"/>
<circle cx="447.783" cy="29.5182" r="5" fill="red"/>
<circle cx="883.628" cy="243.932" r="5" fill="red"/>
<circle cx="171.345" cy="149.589" r="5" fill="red"/>
<circle cx="180.9" cy="520.309" r="5" fill="red"/>
<circle cx="842.681" cy="814.992" r="5" fill="red"/>
<circle cx="1.40776" cy="676.95" r="5" fill="red"/>
<circle cx="647.22" cy="802.275" r="5" fill="red"/>
<circle cx="453.933" cy="139.101" r="5" fill="red"/>
<circle cx="838.434" cy="785.283" r="5" fill="red"/>
<circle cx="727.034" cy="860.79" r="5" fill="red"/>
<circle cx="634.552" cy="386.004" r="5" fill="red"/>
<circle cx="388.823" cy="110.035" r="5" fill="red"/>
<circle cx="186.748" cy="777.572" r="5" fill="red"/>
<circle cx="548.751" cy="461.571" r="5" fill="red"/>
<circle cx="475.401" cy="545.852" r="5" fill="red"/>
<circle cx="139.546" cy="412.256" r="5" fill="red"/>
<circle cx="523.925" cy="130.701" r="5" fill="red"/>
<circle cx="210.052" cy="665.931" r="5" fill="red"/>
<circle cx="264.508" cy="755.329" r="5" fill="red"/>
<circle cx="744.314" cy="635.609" r="5" fill="red"/>
<circle cx="633.931" cy="848.389" r="5" fill="red"/>
<circle cx="479.26" cy="803.747" r="5" fill="red"/>
<circle cx="765.824" cy="932.207" r="5" fill="red"/>
<circle cx="821.869" cy="199.533" r="5" fill="red"/>
<circle cx="68.4018" cy="945.965" r="5" fill="red"/>
<circle cx="682.447" cy="743.844" r="5" fill="red"/>
<circle cx="427.429" cy="209.983" r="5" fill="red"/>
<circle cx="729.815" cy="927.849" r="5" fill="red"/>
<circle cx="159.247" cy="254.612" r="5" fill="red"/>
<circle cx="771.517" cy="939.004" r="5" fill="red"/>
<circle cx="277.395" cy="41.3432" r="5" fill="red"/>
<circle cx="836.331" cy="317.563" r="5" fill="red"/>
<circle cx="838.271" cy="930.013" r="5" fill="red"/>
<circle cx="650.723" cy="934.358" r="5" fill="red"/>
<circle cx="671.65" cy="940.737" r="5" fill="red"/>
<circle cx="160.899" cy="282.248" r="5" fill="red"/>
<circle cx="138.078" cy="600.466" r="5" fill="red"/>
<circle cx="639.038" cy="136.114" r="5" fill="red"/>
<circle cx="626.841" cy="524.588" r="5" fill="red"/>
<circle cx="71.8052" cy="304.205" r="5" fill="red"/>
<circle cx="168.218" cy="172.876" r="5" fill="red"/>
<circle cx="513.591" cy="781.971" r="5" fill="red"/>
<circle cx="851.917" cy="706.128" r="5" fill="red"/>
<circle cx="246.551" cy="607.689" r="5" fill="red"/>
<circle cx="211.81" cy="629.193" r="5" fill="red"/>
<circle cx="106.133" cy="983.712" r="5" fill="red"/>
<circle cx="591.116" cy="315.639" r="5" fill="red"/>
<circle cx="113.129" cy="94.7107" r="5" fill="red"/>
<circle cx="417.707" cy="346.65" r="5" fill="red"/>
<circle cx="33.1113" cy="844.191" r="5" fill="red"/>
<circle cx="11.611" cy="365.79" r="5" fill="red"/>
<circle cx="93.7272" cy="759.864" r="5" fill="red"/>
<circle cx="362.52" cy="379.149" r="5" fill="red"/>
<circle cx="921.84" cy="272.986" r="5" fill="red"/>
<circle cx="514.361" cy="630.835" r="5" fill="red"/>
<circle cx="212.311" cy="6.49859" r="5" fill="red"/>
<circle cx="688.927" cy="346.78" r="5" fill="red"/>
<circle cx="61.5543" cy="846.859" r="5" fill="red"/>
<circle cx="49.2126" cy="425.657" r="5" fill="red"/>
<circle cx="129.765" cy="651.843" r="5" fill="red"/>
<circle cx="746.144" cy="807.97" r="5" fill="red"/>
<circle cx="63.647" cy="652.142" r="5" fill="red"/>
<circle cx="97.6434" cy="475.958" r="5" fill="red"/>
<circle cx="207.771" cy="236.673" r="5" fill="red"/>
<circle cx="747.992" cy="612.495" r="5" fill="red"/>
<circle cx="511.316" cy="794.935" r="5" fill="red"/>
<circle cx="888.825" cy="840.133" r="5" fill="red"/>
<circle cx="864.398" cy="599.592" r="5" fill="red"/>
<circle cx="543.633" cy="170.96" r="5" fill="red"/>
<circle cx="440.217" cy="548.095" r="5" fill="red"/>
<circle cx="630.92" cy="746.023" r="5" fill="red"/>
<circle cx="824.302" cy="113.762" r="5" fill="red"/>
<circle cx="869.495" cy="812.331" r="5" fill="red"/>
<circle cx="546.428" cy="52.9575" r="5" fill="red"/>
<circle cx="857.132" cy="624.302" r="5" fill="red"/>
<circle cx="15.9566" cy="729.354" r="5" fill="red"/>
<circle cx="155.142" cy="977.45" r="5" fill="red"/>
<circle cx="971.684" cy="523.997" r="5" fill="red"/>
<circle cx="717.736" cy="325.657" r="5" fill="red"/>
<circle cx="644.527" cy="638.777" r="5" fill="red"/>
<circle cx="898.275" cy="429.396" r="5" fill="red"/>
<circle cx="446.744" cy="546.688" r="5" fill="red"/>
<circle cx="846.116" cy="623.124" r="5" fill="red"/>
<circle cx="69.4464" cy="424.35" r="5" fill="red"/>
<circle cx="320.135" cy="968.02" r="5" fill="red"/>
<circle cx="920.536" cy="969.832" r="5" fill="red"/>
<circle cx="254.788" cy="484.41" r="5" fill="red"/>
<circle cx="978.538" cy="497.48" r="5" fill="red"/>
<circle cx="884.587" cy="110.167" r="5" fill="red"/>
<circle cx="954.806" cy="209.168" r="5" fill="red"/>
<circle cx="147.156" cy="189.727" r="5" fill="red"/>
<circle cx="426.906" cy="435.218" r="5" fill="red"/>
<circle cx="360.153" cy="190.058" r="5" fill="red"/>
<circle cx="408.82" cy="802.998" r="5" fill="red"/>
<circle cx="975.406" cy="247.793" r="5" fill="red"/>
<circle cx="935.513" cy="880.678" r="5" fill="red"/>
<circle cx="565.683" cy="21.618" r="5" fill="red"/>
<circle cx="941.182" cy="924.594" r="5" fill="red"/>
<circle cx="535.257" cy="904.274" r="5" fill="red"/>
<circle cx="19.3754" cy="958.139" r="5" fill="red"/>
<circle cx="732.653" cy="282.775" r="5" fill="red"/>
<circle cx="234.769" cy="465.671" r="5" fill="red"/>
<circle cx="20.7516" cy="937.203" r="5" fill="red"/>
<circle cx="128.087" cy="966.755" r="5" fill="red"/>
<circle cx="933.559" cy="860.582" r="5" fill="red"/>
<circle cx="76.7227" cy="991.805" r="5" fill="red"/>
<circle cx="755.81" cy="934.148" r="5" fill="red"/>
<circle cx="976.356" cy="701.901" r="5" fill="red"/>
<circle cx="40.0678" cy="263.9" r="5" fill="red"/>
<circle cx="301.756" cy="952.043" r="5" fill="red"/>
<circle cx="91.5968" cy="696.551" r="5" fill="red"/>
<circle cx="43.8913" cy="643.834" r="5" fill="red"/>
<circle cx="49.2071" cy="883.915" r="5" fill="red"/>
<circle cx="491.536" cy="22.745" r="5" fill="red"/>
<circle cx="337.153" cy="926.389" r="5" fill="red"/>
<circle cx="402.573" cy="848.329" r="5" fill="red"/>
<circle cx="447.823" cy="505.886" r="5" fill="red"/>
<circle cx="392.013" cy="285.907" r="5" fill="red"/>
<circle cx="84.5513" cy="335.294" r="5" fill="red"/>
<circle cx="845.488" cy="767.768" r="5" fill="red"/>
<circle cx="447.204" cy="257.856" r="5" fill="red"/>
<circle cx="820.393" cy="129.436" r="5" fill="red"/>
<circle cx="27.7572" cy="656.681" r="5" fill="red"/>
<circle cx="272.891" cy="693.835" r="5" fill="red"/>
<circle cx="903.856" cy="987.441" r="5" fill="red"/>
<circle cx="426.764" cy="671.166" r="5" fill="red"/>
<circle cx="110.128" cy="229.764" r="5" fill="blue"/>
<circle cx="715.422" cy="592.636" r="5" fill="blue"/>
<circle cx="708.812" cy="648.92" r="5" fill="blue"/>
<circle cx="973.434" cy="514.492" r="5" fill="blue"/>
<circle cx="258.323" cy="999.297" r="5" fill="blue"/>
<circle cx="714.081" cy="927.848" r="5" fill="blue"/>
<circle cx="164.176" cy="508.191" r="5" fill="blue"/>
<circle cx="398.036" cy="890.278" r="5" fill="blue"/>
<circle cx="632.565" cy="31.8931" r="5" fill="blue"/>
<circle cx="251.683" cy="977.231" r="5" fill="blue"/>
<circle cx="342.478" cy="525.435" r="5" fill="blue"/>
<circle cx="372.628" cy="586.891" r="5" fill="blue"/>
<circle cx="93.648" cy="150.014" r="5" fill="blue"/>
<circle cx="774.735" cy="356.952" r="5" fill="blue"/>
<circle cx="349.602" cy="890.185" r="5" fill="blue"/>
<circle cx="930.412" cy="228.27" r="5" fill="blue"/>
<circle cx="340.124" cy="709.544" r="5" fill="blue"/>
<circle cx="5.70771" cy="489.428" r="5" fill="blue"/>
<circle cx="127.902" cy="471.427" r="5" fill="blue"/>
<circle cx="600.835" cy="259.448" r="5" fill="blue"/>
<circle cx="603.979" cy="72.8492" r="5" fill="blue"/>
<circle cx="874.689" cy="628.374" r="5" fill="blue"/>
<circle cx="42.6238" cy="245.803" r="5" fill="blue"/>
<circle cx="976.87" cy="705.807" r="5" fill="blue"/>
<circle cx="998.511" cy="476.264" r="5" fill="blue"/>
<circle cx="292.274" cy="917.008" r="5" fill="blue"/>
<circle cx="872.605" cy="395.877" r="5" fill="blue"/>
<circle cx="538.925" cy="374.544" r="5" fill="blue"/>
<circle cx="330.917" cy="917.931" r="5" fill="blue"/>
<circle cx="596.988" cy="994.524" r="5" fill="blue"/>
<circle cx="552.198" cy="0.0594474" r="5" fill="blue"/>
<circle cx="70.734" cy="342.822" r="5" fill="blue"/>
<circle cx="724.862" cy="945.464" r="5" fill="blue"/>
<circle cx="202.962" cy="477.229" r="5" fill="blue"/>
<circle cx="940.47" cy="817.676" r="5" fill="blue"/>
<circle cx="689.047" cy="721.423" r="5" fill="blue"/>
<circle cx="386.426" cy="948.273" r="5" fill="blue"/>
<circle cx="158.933" cy="307.67" r="5" fill="blue"/>
<circle cx="37.7193" cy="377.146" r="5" fill="blue"/>
<circle cx="187.586" cy="749.759" r="5" fill="blue"/>
<circle cx="567.732" cy="211.175" r="5" fill="blue"/>
<circle cx="108.015" cy="773.554" r="5" fill="blue"/>
<circle cx="357.933" cy="770.534" r="5" fill="blue"/>
<circle cx="262.642" cy="997.479" r="5" fill="blue"/>
<circle cx="982.924" cy="166.945" r="5" fill="blue"/>
<circle cx="336.641" cy="20.3457" r="5" fill="blue"/>
<circle cx="316.378" cy="778.422" r="5" fill="blue"/>
<circle cx="774.215" cy="511.894" r="5" fill="blue"/>
<circle cx="836.747" cy="472.568" r="5" fill="blue"/>
<circle cx="44.8148" cy="551.659" r="5" fill="blue"/>
<circle cx="52.0481" cy="743.45" r="5" fill="blue"/>
<circle cx="633.883" cy="973.734" r="5" fill="blue"/>
<circle cx="457.71" cy="569.009" r="5" fill="blue"/>
<circle cx="700.276" cy="281.747" r="5" fill="blue"/>
<circle cx="625.348" cy="330.966" r="5" fill="blue"/>
<circle cx="739.794" cy="143.42" r="5" fill="blue"/>
<circle cx="846.189" cy="270.41" r="5" fill="blue"/>
<circle cx="833.317" cy="611.833" r="5" fill="blue"/>
<circle cx="626.999" cy="237.027" r="5" fill="blue"/>
<circle cx="536.64" cy="80.435" r="5" fill="blue"/>
<circle cx="423.348" cy="51.8362" r="5" fill="blue"/>
<circle cx="669.255" cy="142.137" r="5" fill="blue"/>
<circle cx="590.666" cy="608.565" r="5" fill="blue"/>
<circle cx="734.081" cy="222.956" r="5" fill="blue"/>
<circle cx="570.164" cy="861.511" r="5" fill="blue"/>
<circle cx="219.183" cy="25.5509" r="5" fill="blue"/>
<circle cx="431.402" cy="926.584" r="5" fill="blue"/>
<circle cx="308.158" cy="642.057" r="5" fill="blue"/>
<circle cx="914.86" cy="934.206" r="5" fill="blue"/>
<circle cx="126.368" cy="294.806" r="5" fill="blue"/>
<circle cx="805.772" cy="26.9507" r="5" fill="blue"/>
<circle cx="279.252" cy="486.239" r="5" fill="blue"/>
<circle cx="858.903" cy="514.77" r="5" fill="blue"/>
<circle cx="393.452" cy="638.085" r="5" fill="blue"/>
<circle cx="986.455" cy="374.14" r="5" fill="blue"/>
<circle cx="397.383" cy="856.442" r="5" fill="blue"/>
<circle cx="247.718" cy="895.418" r="5" fill="blue"/>
<circle cx="604.769" cy="391.276" r="5" fill="blue"/>
<circle cx="254.773" cy="694.25" r="5" fill="blue"/>
<circle cx="280.572" cy="923.115" r="5" fill="blue"/>
<circle cx="399.63" cy="729.445" r="5" fill="blue"/>
<circle cx="667.016" cy="258.939" r="5" fill="blue"/>
<circle cx="11.2367" cy="398.987" r="5" fill="blue"/>
<circle cx="353.732" cy="536.092" r="5" fill="blue"/>
<circle cx="570.228" cy="451.13" r="5" fill="blue"/>
<circle cx="43.3924" cy="686.057" r="5" fill="blue"/>
<circle cx="198.427" cy="309.06" r="5" fill="blue"/>
<circle cx="286.428" cy="551.132" r="5" fill="blue"/>
<circle cx="996.047" cy="938.18" r="5" fill="blue"/>
<circle cx="420.245" cy="593.928" r="5" fill="blue"/>
<circle cx="167.109" cy="713.458" r="5" fill="blue"/>
<circle cx="2.32355" cy="557.117" r="5" fill="blue"/>
<circle cx="576.318" cy="723.747" r="5" fill="blue"/>
<circle cx="638.171" cy="691.785" r="5" fill="blue"/>
<circle cx="206.696" cy="464.592" r="5" fill="blue"/>
<circle cx="620.065" cy="604.83" r="5" fill="blue"/>
<circle cx="958.178" cy="808.612" r="5" fill="blue"/>
<circle cx="420.107" cy="714.889" r="5" fill="blue"/>
<circle cx="539.556" cy="436.586" r="5" fill="blue"/>
<circle cx="282.615" cy="557.634" r="5" fill="blue"/>
<circle cx="388.316" cy="797.308" r="5" fill="blue"/>
<circle cx="838.768" cy="568.731" r="5" fill="blue"/>
<circle cx="703.259" cy="156.938" r="5" fill="blue"/>
<circle cx="678.085" cy="934.284" r="5" fill="blue"/>
<circle cx="704.792" cy="384.172" r="5" fill="blue"/>
<circle cx="188.714" cy="144.634" r="5" fill="blue"/>
<circle cx="88.608" cy="532.332" r="5" fill="blue"/>
<circle cx="226.202" cy="517.629" r="5" fill="blue"/>
<circle cx="856.729" cy="972.714" r="5" fill="blue"/>
<circle cx="373.219" cy="509.028" r="5" fill="blue"/>
<circle cx="623.404" cy="20.5549" r="5" fill="blue"/>
<circle cx="728.457" cy="16.0349" r="5" fill="blue"/>
<circle cx="369.162" cy="74.4491" r="5" fill="blue"/>
<circle cx="969.319" cy="679.227" r="5" fill="blue"/>
<circle cx="96.9228" cy="911.533" r="5" fill="blue"/>
<circle cx="774.993" cy="854.924" r="5" fill="blue"/>
<circle cx="68.6361" cy="899.117" r="5" fill="blue"/>
<circle cx="599.411" cy="972.992" r="5" fill="blue"/>
<circle cx="326.874" cy="14.5893" r="5" fill="blue"/>
<circle cx="542.078" cy="787.493" r="5" fill="blue"/>
<circle cx="353.238" cy="58.2859" r="5" fill="blue"/>
<circle cx="62.0817" cy="137.207" r="5" fill="blue"/>
<circle cx="845.953" cy="656.506" r="5" fill="blue"/>
<circle cx="885.713" cy="798.49" r="5" fill="blue"/>
<circle cx="140.673" cy="30.464" r="5" fill="blue"/>
<circle cx="246.148" cy="399.389" r="5" fill="blue"/>
<circle cx="595.237" cy="710.577" r="5" fill="blue"/>
<circle cx="199.952" cy="666.36" r="5" fill="blue"/>
<circle cx="589.592" cy="278.739" r="5" fill="blue"/>
<circle cx="444.993" cy="46.168" r="5" fill="blue"/>
<circle cx="754.688" cy="495.975" r="5" fill="blue"/>
<circle cx="540.24" cy="910.732" r="5" fill="blue"/>
<circle cx="565.696" cy="556.248" r="5" fill="blue"/>
<circle cx="648.862" cy="440.18" r="5" fill="blue"/>
<circle cx="663.062" cy="500.348" r="5" fill="blue"/>
<circle cx="239.45" cy="700.105" r="5" fill="blue"/>
<circle cx="875.216" cy="477.976" r="5" fill="blue"/>
<circle cx="479.453" cy="458.891" r="5" fill="blue"/>
<circle cx="982.564" cy="67.403" r="5" fill="blue"/>
<circle cx="718.527" cy="94.3578" r="5" fill="blue"/>
<circle cx="29.2983" cy="791.291" r="5" fill="blue"/>
<circle cx="424.987" cy="538.431" r="5" fill="blue"/>
<circle cx="880.008" cy="55.1211" r="5" fill="blue"/>
<circle cx="485.894" cy="14.2298" r="5" fill="blue"/>
<circle cx="654.406" cy="366.455" r="5" fill="blue"/>
<circle cx="119.942" cy="159.101" r="5" fill="blue"/>
<circle cx="985.672" cy="181.759" r="5" fill="blue"/>
<circle cx="282.329" cy="728.605" r="5" fill="blue"/>
<circle cx="481.869" cy="936.639" r="5" fill="blue"/>
<circle cx="106.063" cy="752.156" r="5" fill="blue"/>
<circle cx="731.767" cy="61.444" r="5" fill="blue"/>
<circle cx="389.186" cy="114.044" r="5" fill="blue"/>
<circle cx="600.743" cy="713.828" r="5" fill="blue"/>
<circle cx="898.11" cy="204.643" r="5" fill="blue"/>
<circle cx="98.8591" cy="818.597" r="5" fill="blue"/>
<circle cx="36.6547" cy="602.128" r="5" fill="blue"/>
<circle cx="643.117" cy="447.758" r="5" fill="blue"/>
<circle cx="801.859" cy="656.323" r="5" fill="blue"/>
<circle cx="509.729" cy="416.249" r="5" fill="blue"/>
<circle cx="842.893" cy="54.766" r="5" fill="blue"/>
<circle cx="185.915" cy="162.697" r="5" fill="blue"/>
<circle cx="880.803" cy="104.484" r="5" fill="blue"/>
<circle cx="13.3149" cy="388.204" r="5" fill="blue"/>
<circle cx="320.5" cy="769.189" r="5" fill="blue"/>
<circle cx="643.488" cy="48.29" r="5" fill="blue"/>
<circle cx="710.982" cy="69.0403" r="5" fill="blue"/>
<circle cx="401.694" cy="747.404" r="5" fill="blue"/>
<circle cx="449.57" cy="89.7753" r="5" fill="blue"/>
<line x1="794.66" y1="961.837" x2="856.729" y2="972.714" stroke="black" stroke-width="3"/><line x1="702.983" y1="695.733" x2="689.047" y2="721.423" stroke="black" stroke-width="3"/><line x1="30.1042" y1="486.321" x2="37.7193" y2="377.146" stroke="black" stroke-width="3"/><line x1="30.6079" y1="502.66" x2="37.7193" y2="377.146" stroke="black" stroke-width="3"/><line x1="253.671" y1="180.161" x2="369.162" y2="74.4491" stroke="black" stroke-width="3"/><line x1="843.7" y1="130.569" x2="731.767" y2="61.444" stroke="black" stroke-width="3"/><line x1="636.753" y1="819.503" x2="542.078" y2="787.493" stroke="black" stroke-width="3"/><line x1="583.962" y1="446.833" x2="663.062" y2="500.348" stroke="black" stroke-width="3"/><line x1="664.799" y1="290.507" x2="625.348" y2="330.966" stroke="black" stroke-width="3"/><line x1="718.808" y1="304.414" x2="625.348" y2="330.966" stroke="black" stroke-width="3"/><line x1="28.3413" y1="620.917" x2="43.3924" y2="686.057" stroke="black" stroke-width="3"/><line x1="48.7407" y1="968.665" x2="96.9228" y2="911.533" stroke="black" stroke-width="3"/><line x1="465.979" y1="774.757" x2="386.426" y2="948.273" stroke="black" stroke-width="3"/><line x1="895.845" y1="306.426" x2="846.189" y2="270.41" stroke="black" stroke-width="3"/><line x1="200.362" y1="512.799" x2="206.696" y2="464.592" stroke="black" stroke-width="3"/><line x1="0.405636" y1="903.683" x2="68.6361" y2="899.117" stroke="black" stroke-width="3"/><line x1="914.03" y1="651.686" x2="969.319" y2="679.227" stroke="black" stroke-width="3"/><line x1="956.457" y1="857.97" x2="969.319" y2="679.227" stroke="black" stroke-width="3"/><line x1="973.598" y1="858.021" x2="885.713" y2="798.49" stroke="black" stroke-width="3"/><line x1="407.833" y1="692.504" x2="420.245" y2="593.928" stroke="black" stroke-width="3"/><line x1="789.828" y1="764.568" x2="774.993" y2="854.924" stroke="black" stroke-width="3"/><line x1="160.688" y1="160.848" x2="93.648" y2="150.014" stroke="black" stroke-width="3"/><line x1="643.703" y1="528.064" x2="663.062" y2="500.348" stroke="black" stroke-width="3"/><line x1="876.434" y1="113.828" x2="898.11" y2="204.643" stroke="black" stroke-width="3"/><line x1="919.191" y1="849.812" x2="885.713" y2="798.49" stroke="black" stroke-width="3"/><line x1="499.426" y1="837.625" x2="542.078" y2="787.493" stroke="black" stroke-width="3"/><line x1="209.535" y1="639.774" x2="239.45" y2="700.105" stroke="black" stroke-width="3"/><line x1="906.435" y1="13.3159" x2="731.767" y2="61.444" stroke="black" stroke-width="3"/><line x1="713.545" y1="444.629" x2="663.062" y2="500.348" stroke="black" stroke-width="3"/><line x1="752.393" y1="591.85" x2="663.062" y2="500.348" stroke="black" stroke-width="3"/><line x1="80.4863" y1="102.737" x2="93.648" y2="150.014" stroke="black" stroke-width="3"/><line x1="617.294" y1="654.813" x2="689.047" y2="721.423" stroke="black" stroke-width="3"/><line x1="929.269" y1="915.088" x2="856.729" y2="972.714" stroke="black" stroke-width="3"/><line x1="327.834" y1="145.773" x2="369.162" y2="74.4491" stroke="black" stroke-width="3"/><line x1="393.632" y1="564.81" x2="420.245" y2="593.928" stroke="black" stroke-width="3"/><line x1="209.754" y1="861.643" x2="239.45" y2="700.105" stroke="black" stroke-width="3"/><line x1="643.359" y1="983.949" x2="678.085" y2="934.284" stroke="black" stroke-width="3"/><line x1="204.861" y1="528.248" x2="206.696" y2="464.592" stroke="black" stroke-width="3"/><line x1="818.072" y1="20.1374" x2="731.767" y2="61.444" stroke="black" stroke-width="3"/><line x1="567.044" y1="523.169" x2="663.062" y2="500.348" stroke="black" stroke-width="3"/><line x1="81.3591" y1="589.987" x2="43.3924" y2="686.057" stroke="black" stroke-width="3"/><line x1="996.563" y1="16.0187" x2="898.11" y2="204.643" stroke="black" stroke-width="3"/><line x1="447.783" y1="29.5182" x2="449.57" y2="89.7753" stroke="black" stroke-width="3"/><line x1="883.628" y1="243.932" x2="846.189" y2="270.41" stroke="black" stroke-width="3"/><line x1="171.345" y1="149.589" x2="93.648" y2="150.014" stroke="black" stroke-width="3"/><line x1="180.9" y1="520.309" x2="206.696" y2="464.592" stroke="black" stroke-width="3"/><line x1="842.681" y1="814.992" x2="885.713" y2="798.49" stroke="black" stroke-width="3"/><line x1="1.40776" y1="676.95" x2="43.3924" y2="686.057" stroke="black" stroke-width="3"/><line x1="647.22" y1="802.275" x2="689.047" y2="721.423" stroke="black" stroke-width="3"/><line x1="453.933" y1="139.101" x2="449.57" y2="89.7753" stroke="black" stroke-width="3"/><line x1="838.434" y1="785.283" x2="969.319" y2="679.227" stroke="black" stroke-width="3"/><line x1="727.034" y1="860.79" x2="774.993" y2="854.924" stroke="black" stroke-width="3"/><line x1="634.552" y1="386.004" x2="625.348" y2="330.966" stroke="black" stroke-width="3"/><line x1="388.823" y1="110.035" x2="369.162" y2="74.4491" stroke="black" stroke-width="3"/><line x1="186.748" y1="777.572" x2="96.9228" y2="911.533" stroke="black" stroke-width="3"/><line x1="548.751" y1="461.571" x2="625.348" y2="330.966" stroke="black" stroke-width="3"/><line x1="475.401" y1="545.852" x2="420.245" y2="593.928" stroke="black" stroke-width="3"/><line x1="139.546" y1="412.256" x2="206.696" y2="464.592" stroke="black" stroke-width="3"/><line x1="523.925" y1="130.701" x2="603.979" y2="72.8492" stroke="black" stroke-width="3"/><line x1="210.052" y1="665.931" x2="239.45" y2="700.105" stroke="black" stroke-width="3"/><line x1="264.508" y1="755.329" x2="239.45" y2="700.105" stroke="black" stroke-width="3"/><line x1="744.314" y1="635.609" x2="663.062" y2="500.348" stroke="black" stroke-width="3"/><line x1="633.931" y1="848.389" x2="678.085" y2="934.284" stroke="black" stroke-width="3"/><line x1="479.26" y1="803.747" x2="542.078" y2="787.493" stroke="black" stroke-width="3"/><line x1="765.824" y1="932.207" x2="774.993" y2="854.924" stroke="black" stroke-width="3"/><line x1="821.869" y1="199.533" x2="898.11" y2="204.643" stroke="black" stroke-width="3"/><line x1="68.4018" y1="945.965" x2="96.9228" y2="911.533" stroke="black" stroke-width="3"/><line x1="682.447" y1="743.844" x2="689.047" y2="721.423" stroke="black" stroke-width="3"/><line x1="427.429" y1="209.983" x2="449.57" y2="89.7753" stroke="black" stroke-width="3"/><line x1="729.815" y1="927.849" x2="678.085" y2="934.284" stroke="black" stroke-width="3"/><line x1="159.247" y1="254.612" x2="126.368" y2="294.806" stroke="black" stroke-width="3"/><line x1="771.517" y1="939.004" x2="774.993" y2="854.924" stroke="black" stroke-width="3"/><line x1="277.395" y1="41.3432" x2="369.162" y2="74.4491" stroke="black" stroke-width="3"/><line x1="836.331" y1="317.563" x2="774.735" y2="356.952" stroke="black" stroke-width="3"/><line x1="838.271" y1="930.013" x2="774.993" y2="854.924" stroke="black" stroke-width="3"/><line x1="650.723" y1="934.358" x2="678.085" y2="934.284" stroke="black" stroke-width="3"/><line x1="671.65" y1="940.737" x2="678.085" y2="934.284" stroke="black" stroke-width="3"/><line x1="160.899" y1="282.248" x2="126.368" y2="294.806" stroke="black" stroke-width="3"/><line x1="138.078" y1="600.466" x2="239.45" y2="700.105" stroke="black" stroke-width="3"/><line x1="639.038" y1="136.114" x2="603.979" y2="72.8492" stroke="black" stroke-width="3"/><line x1="626.841" y1="524.588" x2="663.062" y2="500.348" stroke="black" stroke-width="3"/><line x1="71.8052" y1="304.205" x2="126.368" y2="294.806" stroke="black" stroke-width="3"/><line x1="168.218" y1="172.876" x2="93.648" y2="150.014" stroke="black" stroke-width="3"/><line x1="513.591" y1="781.971" x2="542.078" y2="787.493" stroke="black" stroke-width="3"/><line x1="851.917" y1="706.128" x2="874.689" y2="628.374" stroke="black" stroke-width="3"/><line x1="246.551" y1="607.689" x2="239.45" y2="700.105" stroke="black" stroke-width="3"/><line x1="211.81" y1="629.193" x2="239.45" y2="700.105" stroke="black" stroke-width="3"/><line x1="106.133" y1="983.712" x2="96.9228" y2="911.533" stroke="black" stroke-width="3"/><line x1="591.116" y1="315.639" x2="625.348" y2="330.966" stroke="black" stroke-width="3"/><line x1="113.129" y1="94.7107" x2="93.648" y2="150.014" stroke="black" stroke-width="3"/><line x1="417.707" y1="346.65" x2="373.219" y2="509.028" stroke="black" stroke-width="3"/><line x1="33.1113" y1="844.191" x2="68.6361" y2="899.117" stroke="black" stroke-width="3"/><line x1="11.611" y1="365.79" x2="37.7193" y2="377.146" stroke="black" stroke-width="3"/><line x1="93.7272" y1="759.864" x2="68.6361" y2="899.117" stroke="black" stroke-width="3"/><line x1="362.52" y1="379.149" x2="373.219" y2="509.028" stroke="black" stroke-width="3"/><line x1="921.84" y1="272.986" x2="846.189" y2="270.41" stroke="black" stroke-width="3"/><line x1="514.361" y1="630.835" x2="420.245" y2="593.928" stroke="black" stroke-width="3"/><line x1="212.311" y1="6.49859" x2="93.648" y2="150.014" stroke="black" stroke-width="3"/><line x1="688.927" y1="346.78" x2="625.348" y2="330.966" stroke="black" stroke-width="3"/><line x1="61.5543" y1="846.859" x2="68.6361" y2="899.117" stroke="black" stroke-width="3"/><line x1="49.2126" y1="425.657" x2="37.7193" y2="377.146" stroke="black" stroke-width="3"/><line x1="129.765" y1="651.843" x2="43.3924" y2="686.057" stroke="black" stroke-width="3"/><line x1="746.144" y1="807.97" x2="774.993" y2="854.924" stroke="black" stroke-width="3"/><line x1="63.647" y1="652.142" x2="43.3924" y2="686.057" stroke="black" stroke-width="3"/><line x1="97.6434" y1="475.958" x2="37.7193" y2="377.146" stroke="black" stroke-width="3"/><line x1="207.771" y1="236.673" x2="126.368" y2="294.806" stroke="black" stroke-width="3"/><line x1="747.992" y1="612.495" x2="874.689" y2="628.374" stroke="black" stroke-width="3"/><line x1="511.316" y1="794.935" x2="542.078" y2="787.493" stroke="black" stroke-width="3"/><line x1="888.825" y1="840.133" x2="885.713" y2="798.49" stroke="black" stroke-width="3"/><line x1="864.398" y1="599.592" x2="874.689" y2="628.374" stroke="black" stroke-width="3"/><line x1="543.633" y1="170.96" x2="603.979" y2="72.8492" stroke="black" stroke-width="3"/><line x1="440.217" y1="548.095" x2="373.219" y2="509.028" stroke="black" stroke-width="3"/><line x1="630.92" y1="746.023" x2="542.078" y2="787.493" stroke="black" stroke-width="3"/><line x1="824.302" y1="113.762" x2="731.767" y2="61.444" stroke="black" stroke-width="3"/><line x1="869.495" y1="812.331" x2="885.713" y2="798.49" stroke="black" stroke-width="3"/><line x1="546.428" y1="52.9575" x2="603.979" y2="72.8492" stroke="black" stroke-width="3"/><line x1="857.132" y1="624.302" x2="874.689" y2="628.374" stroke="black" stroke-width="3"/><line x1="15.9566" y1="729.354" x2="43.3924" y2="686.057" stroke="black" stroke-width="3"/><line x1="155.142" y1="977.45" x2="96.9228" y2="911.533" stroke="black" stroke-width="3"/><line x1="971.684" y1="523.997" x2="874.689" y2="628.374" stroke="black" stroke-width="3"/><line x1="717.736" y1="325.657" x2="774.735" y2="356.952" stroke="black" stroke-width="3"/><line x1="644.527" y1="638.777" x2="689.047" y2="721.423" stroke="black" stroke-width="3"/><line x1="898.275" y1="429.396" x2="774.735" y2="356.952" stroke="black" stroke-width="3"/><line x1="446.744" y1="546.688" x2="373.219" y2="509.028" stroke="black" stroke-width="3"/><line x1="846.116" y1="623.124" x2="874.689" y2="628.374" stroke="black" stroke-width="3"/><line x1="69.4464" y1="424.35" x2="37.7193" y2="377.146" stroke="black" stroke-width="3"/><line x1="320.135" y1="968.02" x2="386.426" y2="948.273" stroke="black" stroke-width="3"/><line x1="920.536" y1="969.832" x2="856.729" y2="972.714" stroke="black" stroke-width="3"/><line x1="254.788" y1="484.41" x2="206.696" y2="464.592" stroke="black" stroke-width="3"/><line x1="978.538" y1="497.48" x2="969.319" y2="679.227" stroke="black" stroke-width="3"/><line x1="884.587" y1="110.167" x2="846.189" y2="270.41" stroke="black" stroke-width="3"/><line x1="954.806" y1="209.168" x2="898.11" y2="204.643" stroke="black" stroke-width="3"/><line x1="147.156" y1="189.727" x2="126.368" y2="294.806" stroke="black" stroke-width="3"/><line x1="426.906" y1="435.218" x2="373.219" y2="509.028" stroke="black" stroke-width="3"/><line x1="360.153" y1="190.058" x2="449.57" y2="89.7753" stroke="black" stroke-width="3"/><line x1="408.82" y1="802.998" x2="386.426" y2="948.273" stroke="black" stroke-width="3"/><line x1="975.406" y1="247.793" x2="846.189" y2="270.41" stroke="black" stroke-width="3"/><line x1="935.513" y1="880.678" x2="885.713" y2="798.49" stroke="black" stroke-width="3"/><line x1="565.683" y1="21.618" x2="603.979" y2="72.8492" stroke="black" stroke-width="3"/><line x1="941.182" y1="924.594" x2="856.729" y2="972.714" stroke="black" stroke-width="3"/><line x1="535.257" y1="904.274" x2="386.426" y2="948.273" stroke="black" stroke-width="3"/><line x1="19.3754" y1="958.139" x2="96.9228" y2="911.533" stroke="black" stroke-width="3"/><line x1="732.653" y1="282.775" x2="774.735" y2="356.952" stroke="black" stroke-width="3"/><line x1="234.769" y1="465.671" x2="206.696" y2="464.592" stroke="black" stroke-width="3"/><line x1="20.7516" y1="937.203" x2="68.6361" y2="899.117" stroke="black" stroke-width="3"/><line x1="128.087" y1="966.755" x2="96.9228" y2="911.533" stroke="black" stroke-width="3"/><line x1="933.559" y1="860.582" x2="885.713" y2="798.49" stroke="black" stroke-width="3"/><line x1="76.7227" y1="991.805" x2="96.9228" y2="911.533" stroke="black" stroke-width="3"/><line x1="755.81" y1="934.148" x2="678.085" y2="934.284" stroke="black" stroke-width="3"/><line x1="976.356" y1="701.901" x2="969.319" y2="679.227" stroke="black" stroke-width="3"/><line x1="40.0678" y1="263.9" x2="37.7193" y2="377.146" stroke="black" stroke-width="3"/><line x1="301.756" y1="952.043" x2="386.426" y2="948.273" stroke="black" stroke-width="3"/><line x1="91.5968" y1="696.551" x2="43.3924" y2="686.057" stroke="black" stroke-width="3"/><line x1="43.8913" y1="643.834" x2="43.3924" y2="686.057" stroke="black" stroke-width="3"/><line x1="49.2071" y1="883.915" x2="68.6361" y2="899.117" stroke="black" stroke-width="3"/><line x1="491.536" y1="22.745" x2="449.57" y2="89.7753" stroke="black" stroke-width="3"/><line x1="337.153" y1="926.389" x2="386.426" y2="948.273" stroke="black" stroke-width="3"/><line x1="402.573" y1="848.329" x2="386.426" y2="948.273" stroke="black" stroke-width="3"/><line x1="447.823" y1="505.886" x2="373.219" y2="509.028" stroke="black" stroke-width="3"/><line x1="392.013" y1="285.907" x2="369.162" y2="74.4491" stroke="black" stroke-width="3"/><line x1="84.5513" y1="335.294" x2="126.368" y2="294.806" stroke="black" stroke-width="3"/><line x1="845.488" y1="767.768" x2="885.713" y2="798.49" stroke="black" stroke-width="3"/><line x1="447.204" y1="257.856" x2="625.348" y2="330.966" stroke="black" stroke-width="3"/><line x1="820.393" y1="129.436" x2="603.979" y2="72.8492" stroke="black" stroke-width="3"/><line x1="27.7572" y1="656.681" x2="43.3924" y2="686.057" stroke="black" stroke-width="3"/><line x1="272.891" y1="693.835" x2="373.219" y2="509.028" stroke="black" stroke-width="3"/><line x1="903.856" y1="987.441" x2="856.729" y2="972.714" stroke="black" stroke-width="3"/><line x1="426.764" y1="671.166" x2="420.245" y2="593.928" stroke="black" stroke-width="3"/></svg>