<svg width="1050" height="1050" xmlns="http://www.w3.org/2000/svg">
<rect x="0" y="0" width="1050" height="1050" fill="lightgray" />
<circle cx="685.217" cy="698.935" r="5" fill="red"/>
<circle cx="802.31" cy="95.2529" r="5" fill="red"/>
<circle cx="991.667" cy="65.1958" r="5" fill="red"/>
<circle cx="399.106" cy="598.662" r="5" fill="red"/>
<circle cx="611.369" cy="14.4987" r="5" fill="red"/>
<circle cx="369.281" cy="183.877" r="5" fill="red"/>
<circle cx="626.948" cy="105.252" r="5" fill="red"/>
<circle cx="817.882" cy="555.266" r="5" fill="red"/>
<circle cx="470.019" cy="379.701" r="5" fill="red"/>
<circle cx="149.941" cy="21.9752" r="5" fill="red"/>
<circle cx="602.844" cy="610.656" r="5" fill="red"/>
<circle cx="800.683" cy="90.1843" r="5" fill="red"/>
<circle cx="199.809" cy="161.267" r="5" fill="red"/>
<circle cx="864.784" cy="154.704" r="5" fill="red"/>
<circle cx="667.733" cy="391.656" r="5" fill="red"/>
<circle cx="993.571" cy="116.904" r="5" fill="red"/>
<circle cx="935.724" cy="850.217" r="5" fill="red"/>
<circle cx="957.792" cy="216.821" r="5" fill="red"/>
<circle cx="459.287" cy="636.279" r="5" fill="red"/>
<circle cx="775.186" cy="592.529" r="5" fill="red"/>
<circle cx="59.5565" cy="19.107" r="5" fill="red"/>
<circle cx="315.602" cy="39.1519" r="5" fill="red"/>
<circle cx="957.606" cy="252.979" r="5" fill="red"/>
<circle cx="117.713" cy="377.926" r="5" fill="red"/>
<circle cx="576.106" cy="806.219" r="5" fill="red"/>
<circle cx="672.371" cy="665.125" r="5" fill="red"/>
<circle cx="355.842" cy="196.045" r="5" fill="red"/>
<circle cx="742.634" cy="656.757" r="5" fill="red"/>
<circle cx="542.708" cy="975.67" r="5" fill="red"/>
<circle cx="142.005" cy="311.868" r="5" fill="red"/>
<circle cx="66.4085" cy="411.268" r="5" fill="red"/>
<circle cx="494.848" cy="215.055" r="5" fill="red"/>
<circle cx="114.191" cy="197.681" r="5" fill="red"/>
<circle cx="370.125" cy="177.492" r="5" fill="red"/>
<circle cx="392.482" cy="642.166" r="5" fill="red"/>
<circle cx="870.536" cy="209.71" r="5" fill="red"/>
<circle cx="590.082" cy="527.373" r="5" fill="red"/>
<circle cx="675.371" cy="31.9941" r="5" fill="red"/>
<circle cx="361.741" cy="152.627" r="5" fill="red"/>
<circle cx="271.762" cy="249.601" r="5" fill="red"/>
<circle cx="527.516" cy="292.039" r="5" fill="red"/>
<circle cx="855.32" cy="605.807" r="5" fill="red"/>
<circle cx="408.057" cy="296.939" r="5" fill="red"/>
<circle cx="692.566" cy="668.738" r="5" fill="red"/>
<circle cx="357.048" cy="426.869" r="5" fill="red"/>
<circle cx="97.3076" cy="116.103" r="5" fill="red"/>
<circle cx="618.394" cy="480.848" r="5" fill="red"/>
<circle cx="154.286" cy="581.004" r="5" fill="red"/>
<circle cx="620.705" cy="424.366" r="5" fill="red"/>
<circle cx="698.863" cy="530.474" r="5" fill="red"/>
<circle cx="353.125" cy="236.562" r="5" fill="red"/>
<circle cx="783.441" cy="618.199" r="5" fill="red"/>
<circle cx="514.17" cy="672.991" r="5" fill="red"/>
<circle cx="734.071" cy="475.996" r="5" fill="red"/>
<circle cx="515.772" cy="967.342" r="5" fill="red"/>
<circle cx="771.982" cy="225.463" r="5" fill="red"/>
<circle cx="726.098" cy="480.776" r="5" fill="red"/>
<circle cx="133.781" cy="998.817" r="5" fill="red"/>
<circle cx="773.084" cy="343.363" r="5" fill="red"/>
<circle cx="68.4169" cy="764.993" r="5" fill="red"/>
<circle cx="320.801" cy="746.14" r="5" fill="red"/>
<circle cx="572.428" cy="647.396" r="5" fill="red"/>
<circle cx="563.618" cy="525.956" r="5" fill="red"/>
<circle cx="100.893" cy="251.512" r="5" fill="red"/>
<circle cx="972.065" cy="518.871" r="5" fill="red"/>
<circle cx="917.149" cy="705.089" r="5" fill="red"/>
<circle cx="154.066" cy="889.621" r="5" fill="red"/>
<circle cx="900.15" cy="871.489" r="5" fill="red"/>
<circle cx="328.43" cy="845.568" r="5" fill="red"/>
<circle cx="711.069" cy="211.621" r="5" fill="red"/>
<circle cx="643.153" cy="513.809" r="5" fill="red"/>
<circle cx="61.9063" cy="667.196" r="5" fill="red"/>
<circle cx="637.1" cy="383.413" r="5" fill="red"/>
<circle cx="607.401" cy="764.026" r="5" fill="red"/>
<circle cx="187.859" cy="51.6882" r="5" fill="red"/>
<circle cx="279.193" cy="430.663" r="5" fill="red"/>
<circle cx="397.05" cy="955.695" r="5" fill="red"/>
<circle cx="264.9" cy="175.079" r="5" fill="red"/>
<circle cx="232.312" cy="998.977" r="5" fill="red"/>
<circle cx="491.69" cy="971.417" r="5" fill="red"/>
<circle cx="883.438" cy="166.492" r="5" fill="red"/>
<circle cx="27.6718" cy="521.688" r="5" fill="red"/>
<circle cx="683.624" cy="796.302" r="5" fill="red"/>
<circle cx="816.653" cy="212.576" r="5" fill="red"/>
<circle cx="405.348" cy="33.3909" r="5" fill="red"/>
<circle cx="204.371" cy="840.981" r="5" fill="red"/>
<circle cx="165.474" cy="589.518" r="5" fill="red"/>
<circle cx="179.479" cy="439.428" r="5" fill="red"/>
<circle cx="100.105" cy="7.8101" r="5" fill="red"/>
<circle cx="291.475" cy="307.147" r="5" fill="red"/>
<circle cx="138.161" cy="802.577" r="5" fill="red"/>
<circle cx="634.537" cy="758.664" r="5" fill="red"/>
<circle cx="378.899" cy="124.01" r="5" fill="red"/>
<circle cx="859.655" cy="560.533" r="5" fill="red"/>
<circle cx="97.7079" cy="250.853" r="5" fill="red"/>
<circle cx="961.656" cy="951.391" r="5" fill="red"/>
<circle cx="83.6426" cy="713.568" r="5" fill="red"/>
<circle cx="923.98" cy="869.684" r="5" fill="red"/>
<circle cx="191.451" cy="549.166" r="5" fill="red"/>
<circle cx="185.614" cy="586.765" r="5" fill="red"/>
<circle cx="475.902" cy="506.97" r="5" fill="blue"/>
<circle cx="209.001" cy="244.44" r="5" fill="blue"/>
<circle cx="384.272" cy="147.624" r="5" fill="blue"/>
<circle cx="777.222" cy="319.026" r="5" fill="blue"/>
<circle cx="722.51" cy="39.3965" r="5" fill="blue"/>
<circle cx="517.324" cy="562.595" r="5" fill="blue"/>
<circle cx="283.47" cy="181.884" r="5" fill="blue"/>
<circle cx="592.757" cy="544.134" r="5" fill="blue"/>
<circle cx="722.766" cy="97.8899" r="5" fill="blue"/>
<circle cx="273.517" cy="544.119" r="5" fill="blue"/>
<circle cx="823.487" cy="886.806" r="5" fill="blue"/>
<circle cx="532.17" cy="465.877" r="5" fill="blue"/>
<circle cx="756.144" cy="928.292" r="5" fill="blue"/>
<circle cx="815.157" cy="111.427" r="5" fill="blue"/>
<circle cx="287.172" cy="710.204" r="5" fill="blue"/>
<circle cx="318.451" cy="299.622" r="5" fill="blue"/>
<circle cx="367.72" cy="991.73" r="5" fill="blue"/>
<circle cx="175.225" cy="563.829" r="5" fill="blue"/>
<circle cx="154.743" cy="954.874" r="5" fill="blue"/>
<circle cx="679.948" cy="739.388" r="5" fill="blue"/>
<circle cx="526.232" cy="658.551" r="5" fill="blue"/>
<circle cx="363.508" cy="285.681" r="5" fill="blue"/>
<circle cx="662.018" cy="997.168" r="5" fill="blue"/>
<circle cx="445.072" cy="97.0368" r="5" fill="blue"/>
<circle cx="182.476" cy="198.88" r="5" fill="blue"/>
<circle cx="330.583" cy="370.569" r="5" fill="blue"/>
<circle cx="173.626" cy="290.023" r="5" fill="blue"/>
<circle cx="202.078" cy="635.908" r="5" fill="blue"/>
<circle cx="865.206" cy="108.151" r="5" fill="blue"/>
<circle cx="993.551" cy="482.894" r="5" fill="blue"/>
<circle cx="246.488" cy="599.986" r="5" fill="blue"/>
<circle cx="902.116" cy="439.823" r="5" fill="blue"/>
<circle cx="191.576" cy="688.585" r="5" fill="blue"/>
<circle cx="677.084" cy="757.947" r="5" fill="blue"/>
<circle cx="19.237" cy="893.118" r="5" fill="blue"/>
<circle cx="477.485" cy="255.616" r="5" fill="blue"/>
<circle cx="663.121" cy="796.098" r="5" fill="blue"/>
<circle cx="444.737" cy="666.823" r="5" fill="blue"/>
<circle cx="756.564" cy="494.909" r="5" fill="blue"/>
<circle cx="288.351" cy="854.871" r="5" fill="blue"/>
<circle cx="66.1872" cy="315.691" r="5" fill="blue"/>
<circle cx="926.826" cy="468.082" r="5" fill="blue"/>
<circle cx="450.719" cy="942.356" r="5" fill="blue"/>
<circle cx="312.204" cy="17.4292" r="5" fill="blue"/>
<circle cx="552.127" cy="623.821" r="5" fill="blue"/>
<circle cx="887.317" cy="804.747" r="5" fill="blue"/>
<circle cx="787.717" cy="129.315" r="5" fill="blue"/>
<circle cx="266.185" cy="919.305" r="5" fill="blue"/>
<circle cx="343.192" cy="167.255" r="5" fill="blue"/>
<circle cx="650.547" cy="186.834" r="5" fill="blue"/>
<circle cx="281.711" cy="870.205" r="5" fill="blue"/>
<circle cx="140.859" cy="604.261" r="5" fill="blue"/>
<circle cx="0.687906" cy="354.206" r="5" fill="blue"/>
<circle cx="232.477" cy="748.443" r="5" fill="blue"/>
<circle cx="697.295" cy="854.807" r="5" fill="blue"/>
<circle cx="722.55" cy="607.458" r="5" fill="blue"/>
<circle cx="353.798" cy="642.944" r="5" fill="blue"/>
<circle cx="682.537" cy="394.125" r="5" fill="blue"/>
<circle cx="320.109" cy="974.621" r="5" fill="blue"/>
<circle cx="314.025" cy="826.835" r="5" fill="blue"/>
<circle cx="180.763" cy="396.04" r="5" fill="blue"/>
<circle cx="334.007" cy="756.328" r="5" fill="blue"/>
<circle cx="463.446" cy="409.74" r="5" fill="blue"/>
<circle cx="152.155" cy="226.592" r="5" fill="blue"/>
<circle cx="240.358" cy="926.372" r="5" fill="blue"/>
<circle cx="159.732" cy="227.895" r="5" fill="blue"/>
<circle cx="992.52" cy="471.595" r="5" fill="blue"/>
<circle cx="254.739" cy="589.266" r="5" fill="blue"/>
<circle cx="424.009" cy="865.798" r="5" fill="blue"/>
<circle cx="299.624" cy="201.725" r="5" fill="blue"/>
<circle cx="379.038" cy="752.729" r="5" fill="blue"/>
<circle cx="716.561" cy="396.024" r="5" fill="blue"/>
<circle cx="912.512" cy="121.799" r="5" fill="blue"/>
<circle cx="844.243" cy="15.251" r="5" fill="blue"/>
<circle cx="33.1451" cy="15.5271" r="5" fill="blue"/>
<circle cx="394.106" cy="81.2898" r="5" fill="blue"/>
<circle cx="379.544" cy="957.209" r="5" fill="blue"/>
<circle cx="877.149" cy="358.452" r="5" fill="blue"/>
<circle cx="666.654" cy="875.503" r="5" fill="blue"/>
<circle cx="71.9135" cy="784.156" r="5" fill="blue"/>
<circle cx="467.311" cy="376.235" r="5" fill="blue"/>
<circle cx="982.088" cy="197.712" r="5" fill="blue"/>
<circle cx="936.336" cy="917.769" r="5" fill="blue"/>
<circle cx="866.522" cy="646.609" r="5" fill="blue"/>
<circle cx="304.689" cy="691.994" r="5" fill="blue"/>
<circle cx="834.18" cy="950.602" r="5" fill="blue"/>
<circle cx="487.047" cy="985.886" r="5" fill="blue"/>
<circle cx="360.208" cy="616.808" r="5" fill="blue"/>
<circle cx="297.923" cy="640.215" r="5" fill="blue"/>
<circle cx="873.355" cy="886.511" r="5" fill="blue"/>
<circle cx="697.296" cy="384.487" r="5" fill="blue"/>
<circle cx="372.896" cy="446.567" r="5" fill="blue"/>
<circle cx="404.587" cy="931.246" r="5" fill="blue"/>
<circle cx="490.929" cy="517.314" r="5" fill="blue"/>
<circle cx="182.595" cy="186.387" r="5" fill="blue"/>
<circle cx="620.249" cy="318.8" r="5" fill="blue"/>
<circle cx="161.138" cy="934.455" r="5" fill="blue"/>
<circle cx="140.413" cy="330.583" r="5" fill="blue"/>
<circle cx="541.83" cy="854.524" r="5" fill="blue"/>
<circle cx="383.718" cy="260.74" r="5" fill="blue"/>
<line x1="685.217" y1="698.935" x2="722.55" y2="607.458" stroke="black" stroke-width="3"/><line x1="802.31" y1="95.2529" x2="815.157" y2="111.427" stroke="black" stroke-width="3"/><line x1="991.667" y1="65.1958" x2="815.157" y2="111.427" stroke="black" stroke-width="3"/><line x1="399.106" y1="598.662" x2="526.232" y2="658.551" stroke="black" stroke-width="3"/><line x1="611.369" y1="14.4987" x2="815.157" y2="111.427" stroke="black" stroke-width="3"/><line x1="369.281" y1="183.877" x2="384.272" y2="147.624" stroke="black" stroke-width="3"/><line x1="626.948" y1="105.252" x2="815.157" y2="111.427" stroke="black" stroke-width="3"/><line x1="817.882" y1="555.266" x2="722.55" y2="607.458" stroke="black" stroke-width="3"/><line x1="470.019" y1="379.701" x2="682.537" y2="394.125" stroke="black" stroke-width="3"/><line x1="149.941" y1="21.9752" x2="182.476" y2="198.88" stroke="black" stroke-width="3"/><line x1="602.844" y1="610.656" x2="526.232" y2="658.551" stroke="black" stroke-width="3"/><line x1="800.683" y1="90.1843" x2="815.157" y2="111.427" stroke="black" stroke-width="3"/><line x1="199.809" y1="161.267" x2="182.476" y2="198.88" stroke="black" stroke-width="3"/><line x1="864.784" y1="154.704" x2="815.157" y2="111.427" stroke="black" stroke-width="3"/><line x1="667.733" y1="391.656" x2="682.537" y2="394.125" stroke="black" stroke-width="3"/><line x1="993.571" y1="116.904" x2="815.157" y2="111.427" stroke="black" stroke-width="3"/><line x1="935.724" y1="850.217" x2="873.355" y2="886.511" stroke="black" stroke-width="3"/><line x1="957.792" y1="216.821" x2="815.157" y2="111.427" stroke="black" stroke-width="3"/><line x1="459.287" y1="636.279" x2="526.232" y2="658.551" stroke="black" stroke-width="3"/><line x1="775.186" y1="592.529" x2="722.55" y2="607.458" stroke="black" stroke-width="3"/><line x1="59.5565" y1="19.107" x2="182.476" y2="198.88" stroke="black" stroke-width="3"/><line x1="315.602" y1="39.1519" x2="384.272" y2="147.624" stroke="black" stroke-width="3"/><line x1="957.606" y1="252.979" x2="815.157" y2="111.427" stroke="black" stroke-width="3"/><line x1="117.713" y1="377.926" x2="180.763" y2="396.04" stroke="black" stroke-width="3"/><line x1="576.106" y1="806.219" x2="526.232" y2="658.551" stroke="black" stroke-width="3"/><line x1="672.371" y1="665.125" x2="722.55" y2="607.458" stroke="black" stroke-width="3"/><line x1="355.842" y1="196.045" x2="384.272" y2="147.624" stroke="black" stroke-width="3"/><line x1="742.634" y1="656.757" x2="722.55" y2="607.458" stroke="black" stroke-width="3"/><line x1="542.708" y1="975.67" x2="281.711" y2="870.205" stroke="black" stroke-width="3"/><line x1="142.005" y1="311.868" x2="180.763" y2="396.04" stroke="black" stroke-width="3"/><line x1="66.4085" y1="411.268" x2="180.763" y2="396.04" stroke="black" stroke-width="3"/><line x1="494.848" y1="215.055" x2="384.272" y2="147.624" stroke="black" stroke-width="3"/><line x1="114.191" y1="197.681" x2="182.476" y2="198.88" stroke="black" stroke-width="3"/><line x1="370.125" y1="177.492" x2="384.272" y2="147.624" stroke="black" stroke-width="3"/><line x1="392.482" y1="642.166" x2="526.232" y2="658.551" stroke="black" stroke-width="3"/><line x1="870.536" y1="209.71" x2="815.157" y2="111.427" stroke="black" stroke-width="3"/><line x1="590.082" y1="527.373" x2="526.232" y2="658.551" stroke="black" stroke-width="3"/><line x1="675.371" y1="31.9941" x2="815.157" y2="111.427" stroke="black" stroke-width="3"/><line x1="361.741" y1="152.627" x2="384.272" y2="147.624" stroke="black" stroke-width="3"/><line x1="271.762" y1="249.601" x2="182.476" y2="198.88" stroke="black" stroke-width="3"/><line x1="527.516" y1="292.039" x2="682.537" y2="394.125" stroke="black" stroke-width="3"/><line x1="855.32" y1="605.807" x2="722.55" y2="607.458" stroke="black" stroke-width="3"/><line x1="408.057" y1="296.939" x2="384.272" y2="147.624" stroke="black" stroke-width="3"/><line x1="692.566" y1="668.738" x2="722.55" y2="607.458" stroke="black" stroke-width="3"/><line x1="357.048" y1="426.869" x2="180.763" y2="396.04" stroke="black" stroke-width="3"/><line x1="97.3076" y1="116.103" x2="182.476" y2="198.88" stroke="black" stroke-width="3"/><line x1="618.394" y1="480.848" x2="682.537" y2="394.125" stroke="black" stroke-width="3"/><line x1="154.286" y1="581.004" x2="140.859" y2="604.261" stroke="black" stroke-width="3"/><line x1="620.705" y1="424.366" x2="682.537" y2="394.125" stroke="black" stroke-width="3"/><line x1="698.863" y1="530.474" x2="722.55" y2="607.458" stroke="black" stroke-width="3"/><line x1="353.125" y1="236.562" x2="384.272" y2="147.624" stroke="black" stroke-width="3"/><line x1="783.441" y1="618.199" x2="722.55" y2="607.458" stroke="black" stroke-width="3"/><line x1="514.17" y1="672.991" x2="526.232" y2="658.551" stroke="black" stroke-width="3"/><line x1="734.071" y1="475.996" x2="682.537" y2="394.125" stroke="black" stroke-width="3"/><line x1="515.772" y1="967.342" x2="281.711" y2="870.205" stroke="black" stroke-width="3"/><line x1="771.982" y1="225.463" x2="682.537" y2="394.125" stroke="black" stroke-width="3"/><line x1="726.098" y1="480.776" x2="682.537" y2="394.125" stroke="black" stroke-width="3"/><line x1="133.781" y1="998.817" x2="281.711" y2="870.205" stroke="black" stroke-width="3"/><line x1="773.084" y1="343.363" x2="682.537" y2="394.125" stroke="black" stroke-width="3"/><line x1="68.4169" y1="764.993" x2="140.859" y2="604.261" stroke="black" stroke-width="3"/><line x1="320.801" y1="746.14" x2="281.711" y2="870.205" stroke="black" stroke-width="3"/><line x1="572.428" y1="647.396" x2="526.232" y2="658.551" stroke="black" stroke-width="3"/><line x1="563.618" y1="525.956" x2="526.232" y2="658.551" stroke="black" stroke-width="3"/><line x1="100.893" y1="251.512" x2="182.476" y2="198.88" stroke="black" stroke-width="3"/><line x1="972.065" y1="518.871" x2="722.55" y2="607.458" stroke="black" stroke-width="3"/><line x1="917.149" y1="705.089" x2="873.355" y2="886.511" stroke="black" stroke-width="3"/><line x1="154.066" y1="889.621" x2="281.711" y2="870.205" stroke="black" stroke-width="3"/><line x1="900.15" y1="871.489" x2="873.355" y2="886.511" stroke="black" stroke-width="3"/><line x1="328.43" y1="845.568" x2="281.711" y2="870.205" stroke="black" stroke-width="3"/><line x1="711.069" y1="211.621" x2="682.537" y2="394.125" stroke="black" stroke-width="3"/><line x1="643.153" y1="513.809" x2="722.55" y2="607.458" stroke="black" stroke-width="3"/><line x1="61.9063" y1="667.196" x2="140.859" y2="604.261" stroke="black" stroke-width="3"/><line x1="637.1" y1="383.413" x2="682.537" y2="394.125" stroke="black" stroke-width="3"/><line x1="607.401" y1="764.026" x2="526.232" y2="658.551" stroke="black" stroke-width="3"/><line x1="187.859" y1="51.6882" x2="182.476" y2="198.88" stroke="black" stroke-width="3"/><line x1="279.193" y1="430.663" x2="180.763" y2="396.04" stroke="black" stroke-width="3"/><line x1="397.05" y1="955.695" x2="281.711" y2="870.205" stroke="black" stroke-width="3"/><line x1="264.9" y1="175.079" x2="182.476" y2="198.88" stroke="black" stroke-width="3"/><line x1="232.312" y1="998.977" x2="281.711" y2="870.205" stroke="black" stroke-width="3"/><line x1="491.69" y1="971.417" x2="281.711" y2="870.205" stroke="black" stroke-width="3"/><line x1="883.438" y1="166.492" x2="815.157" y2="111.427" stroke="black" stroke-width="3"/><line x1="27.6718" y1="521.688" x2="140.859" y2="604.261" stroke="black" stroke-width="3"/><line x1="683.624" y1="796.302" x2="873.355" y2="886.511" stroke="black" stroke-width="3"/><line x1="816.653" y1="212.576" x2="682.537" y2="394.125" stroke="black" stroke-width="3"/><line x1="405.348" y1="33.3909" x2="384.272" y2="147.624" stroke="black" stroke-width="3"/><line x1="204.371" y1="840.981" x2="281.711" y2="870.205" stroke="black" stroke-width="3"/><line x1="165.474" y1="589.518" x2="140.859" y2="604.261" stroke="black" stroke-width="3"/><line x1="179.479" y1="439.428" x2="180.763" y2="396.04" stroke="black" stroke-width="3"/><line x1="100.105" y1="7.8101" x2="182.476" y2="198.88" stroke="black" stroke-width="3"/><line x1="291.475" y1="307.147" x2="180.763" y2="396.04" stroke="black" stroke-width="3"/><line x1="138.161" y1="802.577" x2="281.711" y2="870.205" stroke="black" stroke-width="3"/><line x1="634.537" y1="758.664" x2="526.232" y2="658.551" stroke="black" stroke-width="3"/><line x1="378.899" y1="124.01" x2="384.272" y2="147.624" stroke="black" stroke-width="3"/><line x1="859.655" y1="560.533" x2="722.55" y2="607.458" stroke="black" stroke-width="3"/><line x1="97.7079" y1="250.853" x2="182.476" y2="198.88" stroke="black" stroke-width="3"/><line x1="961.656" y1="951.391" x2="873.355" y2="886.511" stroke="black" stroke-width="3"/><line x1="83.6426" y1="713.568" x2="140.859" y2="604.261" stroke="black" stroke-width="3"/><line x1="923.98" y1="869.684" x2="873.355" y2="886.511" stroke="black" stroke-width="3"/><line x1="191.451" y1="549.166" x2="140.859" y2="604.261" stroke="black" stroke-width="3"/><line x1="185.614" y1="586.765" x2="140.859" y2="604.261" stroke="black" stroke-width="3"/></svg>